
        <svg xmlns="http://www.w3.org/2000/svg" xmlns:xlink="http://www.w3.org/1999/xlink" version="1.1" width="3170.940170940171" height="989.6482290365757" viewBox="0 -42.73504273504273 3170.940170940171 989.6482290365757">
			
			<g transform="scale(8.547008547008547) translate(10, 10)">
				<defs id="SvgjsDefs1462"/><g id="SvgjsG1463" featureKey="symbolFeature-0" transform="matrix(1.421875,0,0,1.421875,-1.4218746609985828,-6.4911045134067535)" fill="#fff"><g xmlns="http://www.w3.org/2000/svg"><g><path d="M61.3,35H45.2v-6.8l7.7,3.5c0.6,0.3,1.3-0.1,1.4-0.7C59.4,4.5,61,0.1,58.5,1.2L22.2,16.7c-0.8,0.3-0.8,1.5,0,1.8l6.2,3    H4.7c-2.1,0-3.7,1.7-3.7,3.7V47c0,2.1,1.7,3.7,3.7,3.7h5.8v5.6c0,0.9,1,1.3,1.6,0.8l7.7-6.4h10v4.9c0,2.1,1.7,3.7,3.7,3.7h12.7    l7.7,5.4c0.7,0.5,1.6,0,1.6-0.8v-4.6h5.8c2.1,0,3.7-1.7,3.7-3.7V38.8C65,36.7,63.3,35,61.3,35z M52.5,29.4l-7.9-3.6c0,0,0,0,0,0    l-2.8-1.3L57.1,5.9L52.5,29.4z M39.5,24.2C39.5,24.2,39.5,24.2,39.5,24.2L39.5,24.2c-0.1,0.1-0.2,0.2-0.2,0.4c0,0,0,0,0,0    l-1.9,6.7l-2.3-8L51.3,9.8L39.5,24.2z M53.1,5.7L33.8,21.8L25,17.6L53.1,5.7z M19.5,48.7c-0.2,0-0.5,0.1-0.6,0.2l-6.3,5.3v-4.5    c0-0.6-0.4-1-1-1H4.7C3.8,48.7,3,47.9,3,47V25.2c0-0.9,0.8-1.7,1.7-1.7h27.8l0.6,0.3l3.3,11.6c0.3,1,1.7,1,1.9,0l2.5-9l2.3,1.1V47    c0,0.9-0.8,1.7-1.7,1.7H19.5z M63,55.6c0,0.9-0.8,1.7-1.7,1.7h-6.8c-0.6,0-1,0.4-1,1V62l-6.4-4.5c-0.2-0.1-0.4-0.2-0.6-0.2h-13    c-0.9,0-1.7-0.8-1.7-1.7v-4.9h9.6c2.1,0,3.7-1.7,3.7-3.7V37h16.1c0.9,0,1.7,0.8,1.7,1.7V55.6z"/></g><g><path d="M8.2,31h16.1c0.6,0,1-0.4,1-1s-0.4-1-1-1H8.2c-0.6,0-1,0.4-1,1S7.6,31,8.2,31z"/></g><g><path d="M8.2,37h16.1c0.6,0,1-0.4,1-1s-0.4-1-1-1H8.2c-0.6,0-1,0.4-1,1S7.6,37,8.2,37z"/></g><g><path d="M38,42c0-0.6-0.4-1-1-1H8.2c-0.6,0-1,0.4-1,1s0.4,1,1,1H37C37.6,43,38,42.5,38,42z"/></g><g><path d="M59.1,42.7h-10c-0.6,0-1,0.4-1,1s0.4,1,1,1h10c0.6,0,1-0.4,1-1S59.7,42.7,59.1,42.7z"/></g><g><path d="M59.1,49.7h-10c-0.6,0-1,0.4-1,1s0.4,1,1,1h10c0.6,0,1-0.4,1-1S59.7,49.7,59.1,49.7z"/></g></g></g><g id="SvgjsG1464" featureKey="nameFeature-0" transform="matrix(1.7801641106898307,0,0,1.7801641106898307,108.86375077811103,-0.6738656555939109)" fill="#fff"><path d="M9.9576 12.190000000000001 l3.4508 27.854 l-2.4912 0 l-0.89684 -6.5524 l-0.34953 -2.9028 l-0.22535 1.0103 c-0.87384 -0.10961 -3.9498 -0.17859 -3.9498 -0.17859 l-0.26445 8.4116 l-4.0312 0.21156 l0.4032 -1.714 l2.5816 -0.44688 l-2.4421 -0.14562 l2.0136 -8.556 l6.2977 0 l-1.5652 -11.978 l-2.1102 11.271 l-2.2658 0.17859 l3.6409 -16.462 l2.2038 0 z M19.8176 38.0112 l4.3699 0 l0.32578 2.0328 l-8.8272 0 l0 -1.4326 l3.0055 -12.409 l2.2819 -11.572 l-5.5335 0 l0.47292 -2.656 l7.8336 -0.20391 l0 2.3394 l-4.94 23.574 l2.4414 -0.055936 l2.5218 0.08586 l-0.18856 0.21078 z M31.2196 37.5129 l1.6067 0.0076564 l-0.11191 2.5234 l-5.7012 -0.0099608 l-0.12801 -2.2574 l1.4165 -0.09504 l0.14793 -4.2804 l-0.28746 -15.812 l-0.30969 5.5704 c-0.085076 -2.9059 -0.15102 -6.182 -0.19394 -8.2844 l-1.9385 0.081252 l0 -2.7664 l7.282 -0.051368 l-0.11191 2.61 l-1.7055 -0.021445 z M39.8176 38.0112 l4.3699 0 l0.32578 2.0328 l-8.8272 0 l0 -1.4326 l3.0055 -12.409 l2.2819 -11.572 l-5.5335 0 l0.47292 -2.656 l7.8336 -0.20391 l0 2.3394 l-4.94 23.574 l2.4414 -0.055936 l2.5218 0.08586 l-0.18856 0.21078 z M54.8776 12.190000000000001 l3.4508 27.854 l-2.4912 0 l-0.89684 -6.5524 l-0.34953 -2.9028 l-0.22535 1.0103 c-0.87384 -0.10961 -3.9498 -0.17859 -3.9498 -0.17859 l-0.26445 8.4116 l-4.0312 0.21156 l0.4032 -1.714 l2.5816 -0.44688 l-2.4421 -0.14562 l2.0136 -8.556 l6.2977 0 l-1.5652 -11.978 l-2.1102 11.271 l-2.2658 0.17859 l3.6409 -16.462 l2.2038 0 z M70.769 12.321000000000002 l0.70596 27.722 l-2.9503 -0.065936 l-0.088164 -12.812 l0 -2.5625 l-0.3825 1.287 l-4.0228 0.010742 l0.25066 14.136 l-2.8422 -0.065936 s-0.068204 -2.298 -0.16172 -5.5672 l1.7906 -0.2591 l-1.8044 -0.23531 c-0.23226 -8.1096 -0.50436 -21.78 -0.50436 -21.78 l2.574 0.059024 l0.23609 10.462 l-1.2671 0.3227 l5.886 -0.053672 l-0.11422 -10.658 z M82.2376 12.190000000000001 l3.4508 27.854 l-2.4912 0 l-0.89684 -6.5524 l-0.34953 -2.9028 l-0.22535 1.0103 c-0.87384 -0.10961 -3.9498 -0.17859 -3.9498 -0.17859 l-0.26445 8.4116 l-4.0312 0.21156 l0.4032 -1.714 l2.5816 -0.44688 l-2.4421 -0.14562 l2.0136 -8.556 l6.2977 0 l-1.5652 -11.978 l-2.1102 11.271 l-2.2658 0.17859 l3.6409 -16.462 l2.2038 0 z M99.087 22.558 c0 0 0.20387 6.0908 -0.15258 6.372 c-0.35566 0.28133 -1.169 5.092 -1.4081 5.3764 s-2.5348 3.8034 -2.774 4.0876 s-6.556 1.6503 -6.556 1.6503 c-0.041408 -0.12418 -0.063632 -1.2119 -0.072812 -2.889 c1.7239 -0.31656 4.7784 -0.86616 4.7784 -0.86616 s2.6721 -4.702 2.6782 -4.9592 s1.7339 -7.6224 1.428 -7.8232 c-0.30586 -0.20008 -1.4173 -5.6364 -1.5675 -5.8332 s-3.5873 -2.469 -3.8226 -2.3456 c-0.23609 0.12266 -2.4467 1.7446 -2.4467 1.7446 l1.2433 16.196 l3.0331 -2.761 s1.4594 -6.7276 1.2257 -6.6688 c-0.23379 0.058244 -2.1708 -0.052148 -2.1708 -0.052148 l-0.4576 5.3988 l-1.2724 -10.914 l2.3961 0.37942 l2.0788 3.9138 l-0.73204 7.9036 l-2.6069 4.4456 s-2.1815 -0.57416 -3.7889 -0.89224 c0.011484 -8.2548 0.16555 -22.057 0.16555 -22.057 l4.4196 0.10578 l4.7924 3.9782 z M111.371 15.561 l0.5832 8.9368 l-0.33879 8.86 l-2.2635 6.04 l-4.9532 0.64616 l-3.2148 -5.9836 l-0.01918 -14.629 c-0.10117 -0.38098 1.3813 -5.9016 1.3813 -5.9016 l4.2948 -1.9163 l1.9584 0.50284 l-3.7437 2.4245 l-2.2298 4.9824 l0.069764 10.572 s1.5453 6.1956 1.7025 6.1956 s2.0244 1.6772 2.0244 1.6772 l1.8948 -1.4855 l1.52 -5.206 l0.66228 -6.9944 l-1.1498 -5.6532 l-2.6476 0.51124 l-1.6373 5.686 l0.55728 2.7142 l1.9508 -0.47908 l-0.91444 -3.4172 l1.2801 -0.28746 s0.52276 4.1676 0.52276 4.3116 c0 0.10426 -1.3061 6.5152 -1.3061 6.5152 l-1.0976 1.1023 l-0.94052 -5.5572 l-0.78416 -4.902 l1.0976 -7.4584 l3.6716 -3.8211 z M123.779 11.995999999999999 l-1.4027 9.0044 l-1.7346 0 l1.6679 0.42696 l-2.9012 18.616 l-1.6588 -0.1257 l-4.9892 -27.922 l3.1879 0 l2.0765 16.451 l0.46068 4.458 l-0.14871 -2.9871 l2.5288 -17.922 l2.9135 0 z M136.019 11.995999999999999 l-1.4027 9.0044 l-1.7346 0 l1.6679 0.42696 l-2.9012 18.616 l-1.6588 -0.1257 l-4.9892 -27.922 l3.1879 0 l2.0765 16.451 l0.46068 4.458 l-0.14871 -2.9871 l2.5288 -17.922 l2.9135 0 z"/></g>
			</g>
		</svg>
	