<svg width="41" height="36" viewBox="0 0 41 36" fill="none" xmlns="http://www.w3.org/2000/svg">
<g clip-path="url(#clip0_53_1567)">
<path d="M27.8221 24.7881C25.4157 24.7881 23.458 26.7458 23.458 29.1521C23.458 31.5585 25.4158 33.5162 27.8221 33.5162C30.2284 33.5162 32.1861 31.5585 32.1861 29.1521C32.1861 26.7458 30.2284 24.7881 27.8221 24.7881ZM27.8221 30.8978C26.8594 30.8978 26.0764 30.1148 26.0764 29.1521C26.0764 28.1894 26.8594 27.4065 27.8221 27.4065C28.7848 27.4065 29.5677 28.1894 29.5677 29.1521C29.5677 30.1148 28.7848 30.8978 27.8221 30.8978Z" fill="white"/>
<path d="M34.8316 7.92117C34.5838 7.60392 34.2036 7.41887 33.8008 7.41887H8.19136L7.01304 2.48876C6.87208 1.89964 6.3453 1.48373 5.73956 1.48373H1.41909C0.69598 1.48367 0.109863 2.06978 0.109863 2.79289C0.109863 3.516 0.69598 4.10212 1.41909 4.10212H4.70617L8.96115 21.9059C9.10211 22.4955 9.62889 22.911 10.2346 22.911H30.6151C31.2169 22.911 31.7414 22.5007 31.8859 21.9168L35.0717 9.04269C35.1681 8.65174 35.0795 8.23843 34.8316 7.92117ZM29.5908 20.2926H11.268L8.81712 10.0373H32.128L29.5908 20.2926Z" fill="white"/>
<path d="M11.9803 24.7881C9.57389 24.7881 7.61621 26.7458 7.61621 29.1521C7.61621 31.5585 9.57395 33.5162 11.9803 33.5162C14.3866 33.5162 16.3443 31.5585 16.3443 29.1521C16.3443 26.7458 14.3866 24.7881 11.9803 24.7881ZM11.9803 30.8978C11.0176 30.8978 10.2346 30.1148 10.2346 29.1521C10.2346 28.1894 11.0176 27.4065 11.9803 27.4065C12.943 27.4065 13.7259 28.1894 13.7259 29.1521C13.7259 30.1148 12.943 30.8978 11.9803 30.8978Z" fill="white"/>
</g>
<defs>
<clipPath id="clip0_53_1567">
<rect width="35" height="35" fill="white" transform="translate(0.109863)"/>
</clipPath>
</defs>
</svg>
