<svg width="12" height="7" viewBox="0 0 12 7" fill="none" xmlns="http://www.w3.org/2000/svg">
<path d="M11.6682 0.957615C11.7426 1.03202 11.7798 1.11759 11.7798 1.21431C11.7798 1.31104 11.7426 1.3966 11.6682 1.47101L6.46734 6.6719C6.39294 6.74631 6.30737 6.78351 6.21065 6.78351C6.11392 6.78351 6.02835 6.74631 5.95395 6.6719L0.753056 1.47101C0.678651 1.3966 0.641449 1.31104 0.641449 1.21431C0.641449 1.11759 0.678651 1.03202 0.753056 0.957615L1.31109 0.39958C1.3855 0.325175 1.47106 0.287972 1.56779 0.287972C1.66451 0.287972 1.75008 0.325175 1.82448 0.39958L6.21065 4.78574L10.5968 0.39958C10.6712 0.325175 10.7568 0.287972 10.8535 0.287972C10.9502 0.287972 11.0358 0.325175 11.1102 0.39958L11.6682 0.957615Z" fill="black"/>
</svg>
