<svg width="40" height="40" viewBox="0 0 40 40" fill="none" xmlns="http://www.w3.org/2000/svg">
<rect width="40" height="40" fill="#2D2D2D"/>
<g clip-path="url(#clip0_1_771)">
<path d="M27.9569 26.9843L23.9108 22.7762C24.9512 21.5396 25.5211 19.9836 25.5211 18.3637C25.5211 14.5791 22.442 11.5 18.6574 11.5C14.8728 11.5 11.7937 14.5791 11.7937 18.3637C11.7937 22.1484 14.8728 25.2275 18.6574 25.2275C20.0782 25.2275 21.4321 24.799 22.5897 23.9854L26.6665 28.2255C26.8369 28.4024 27.0661 28.5 27.3117 28.5C27.5442 28.5 27.7647 28.4114 27.9321 28.2502C28.2878 27.9079 28.2992 27.3403 27.9569 26.9843ZM18.6574 13.2905C21.4548 13.2905 23.7306 15.5663 23.7306 18.3637C23.7306 21.1612 21.4548 23.4369 18.6574 23.4369C15.86 23.4369 13.5842 21.1612 13.5842 18.3637C13.5842 15.5663 15.86 13.2905 18.6574 13.2905Z" fill="white"/>
</g>
<defs>
<clipPath id="clip0_1_771">
<rect width="17" height="17" fill="white" transform="translate(11.5 11.5)"/>
</clipPath>
</defs>
</svg>
