<svg width="7" height="12" viewBox="0 0 7 12" fill="none" xmlns="http://www.w3.org/2000/svg">
<path d="M6.56249 5.45758C6.63689 5.53199 6.67409 5.61756 6.67409 5.71428C6.67409 5.81101 6.63689 5.89657 6.56249 5.97098L1.36159 11.1719C1.28719 11.2463 1.20162 11.2835 1.1049 11.2835C1.00817 11.2835 0.922606 11.2463 0.848201 11.1719L0.290165 10.6138C0.215761 10.5394 0.178558 10.4539 0.178558 10.3571C0.178558 10.2604 0.215761 10.1748 0.290165 10.1004L4.67633 5.71428L0.290165 1.32812C0.215761 1.25372 0.178558 1.16815 0.178558 1.07142C0.178558 0.974698 0.215761 0.889132 0.290165 0.814728L0.848201 0.256692C0.922606 0.182287 1.00817 0.145084 1.1049 0.145084C1.20162 0.145084 1.28719 0.182287 1.36159 0.256692L6.56249 5.45758Z" fill="black"/>
</svg>
