<svg width="41" height="41" viewBox="0 0 41 41" fill="none" xmlns="http://www.w3.org/2000/svg">
<g clip-path="url(#clip0_1_435)">
<path d="M34.1849 15.4901V13.9523C34.1849 10.2716 32.8824 6.85146 30.521 4.31364C28.1008 1.7086 24.7731 0.280029 21.1429 0.280029H19.8739C16.2437 0.280029 12.916 1.7086 10.4958 4.31364C8.13445 6.85146 6.83193 10.2716 6.83193 13.9523V15.4901C3.96638 15.6834 1.68907 18.0699 1.68907 20.9859V23.3893C1.68907 26.4229 4.15966 28.8935 7.19327 28.8935H10.2941C10.8487 28.8935 11.3025 28.4397 11.3025 27.8851V16.4817C11.3025 15.9271 10.8487 15.4733 10.2941 15.4733H8.84874V13.9523C8.84874 7.30524 13.5882 2.29684 19.8655 2.29684H21.1345C27.4202 2.29684 32.1513 7.30524 32.1513 13.9523V15.4733H30.7059C30.1513 15.4733 29.6975 15.9271 29.6975 16.4817V27.8767C29.6975 28.4313 30.1513 28.8851 30.7059 28.8851H32.1176C31.7059 34.1456 28.084 35.3641 26.4034 35.6414C25.9412 34.2212 24.605 33.196 23.0336 33.196H20.5126C18.563 33.196 16.9748 34.7842 16.9748 36.7338C16.9748 38.6834 18.563 40.28 20.5126 40.28H23.042C24.6723 40.28 26.042 39.1708 26.4538 37.675C27.2773 37.5573 28.5798 37.2632 29.8739 36.5069C31.6975 35.4397 33.8571 33.2632 34.1429 28.8767C37.0252 28.7002 39.3109 26.3052 39.3109 23.3809V20.9775C39.3193 18.0699 37.0504 15.675 34.1849 15.4901ZM9.30252 26.8683H7.21008C5.28571 26.8683 3.72269 25.3052 3.72269 23.3809V20.9775C3.72269 19.0531 5.28571 17.4901 7.21008 17.4901H9.30252V26.8683ZM23.042 38.2632H20.5126C19.6723 38.2632 18.9916 37.5826 18.9916 36.7422C18.9916 35.9019 19.6723 35.2212 20.5126 35.2212H23.042C23.8824 35.2212 24.563 35.9019 24.563 36.7422C24.563 37.5826 23.8824 38.2632 23.042 38.2632ZM37.3025 23.3809C37.3025 25.3052 35.7395 26.8683 33.8151 26.8683H31.7227V17.4901H33.8151C35.7395 17.4901 37.3025 19.0531 37.3025 20.9775V23.3809Z" fill="black"/>
</g>
<defs>
<clipPath id="clip0_1_435">
<rect width="40" height="40" fill="white" transform="translate(0.5 0.280029)"/>
</clipPath>
</defs>
</svg>
