<svg width="36" height="41" viewBox="0 0 36 41" fill="none" xmlns="http://www.w3.org/2000/svg">
<path d="M19.3472 25.3861H17.0603C16.2287 25.3861 15.5551 24.7125 15.5551 23.8809C15.5551 23.0493 16.2287 22.3757 17.0603 22.3757H21.0852C21.6341 22.3757 22.0831 21.9266 22.0831 21.3778C22.0831 20.8289 21.6341 20.3799 21.0852 20.3799H19.1975V18.9911C19.1975 18.4422 18.7484 17.9932 18.1996 17.9932C17.6507 17.9932 17.2016 18.4422 17.2016 18.9911V20.3799H17.0603C15.131 20.3799 13.5592 21.9516 13.5592 23.8809C13.5592 25.8102 15.131 27.3819 17.0603 27.3819H19.3472C20.1788 27.3819 20.8524 28.0555 20.8524 28.8871C20.8524 29.7187 20.1788 30.3923 19.3472 30.3923H15.2474C14.6985 30.3923 14.2495 30.8414 14.2495 31.3903C14.2495 31.9391 14.6985 32.3882 15.2474 32.3882H17.21V33.8102C17.21 34.3591 17.659 34.8081 18.2079 34.8081C18.7567 34.8081 19.2058 34.3591 19.2058 33.8102V32.3882H19.3721C19.3804 32.3882 19.3888 32.3882 19.3971 32.3882C21.3098 32.3632 22.8482 30.7998 22.8482 28.8871C22.8482 26.9578 21.2765 25.3861 19.3472 25.3861Z" fill="black"/>
<path d="M33.2017 23.1241C32.1538 20.7125 30.7069 18.3757 28.8773 16.1886C26.6653 13.5274 24.4615 11.7478 23.3389 10.9245L27.58 3.05758C27.7879 2.66672 27.7214 2.1844 27.3971 1.8767C26.2994 0.803938 25.1351 0.280029 23.8378 0.280029C22.6486 0.280029 21.5592 0.729094 20.6112 1.12826C19.8628 1.43595 19.1559 1.73533 18.5821 1.73533C18.4075 1.73533 18.2578 1.71038 18.1081 1.65217C16.1289 0.928678 14.6071 0.479613 13.1351 0.479613C11.2723 0.479613 9.68399 1.22805 8.12889 2.82473C7.80457 3.15737 7.75467 3.68128 8.01247 4.07213L12.5863 10.9827C11.4553 11.8226 9.29313 13.5856 7.12266 16.1886C5.30145 18.3757 3.84615 20.7125 2.79833 23.1241C1.4844 26.1594 0.819122 29.3278 0.819122 32.5378C0.819122 36.8039 4.29521 40.28 8.56133 40.28H27.4387C31.7048 40.28 35.1809 36.8039 35.1809 32.5378C35.1809 29.3278 34.5156 26.1594 33.2017 23.1241ZM10.1414 3.65633C11.106 2.82473 12.0291 2.45882 13.1351 2.45882C14.316 2.45882 15.6466 2.85799 17.4179 3.51496C17.7838 3.64801 18.1746 3.71454 18.5738 3.71454C19.5468 3.71454 20.4782 3.332 21.368 2.95778C22.2245 2.6002 23.0395 2.25924 23.8295 2.25924C24.2121 2.25924 24.7526 2.32577 25.4345 2.8081L21.4428 10.226H14.4906L10.1414 3.65633ZM27.4387 38.2842H8.56133C5.39293 38.2842 2.81496 35.7062 2.81496 32.5378C2.81496 27.2073 4.76923 22.1511 8.61122 17.5108C11.0395 14.5752 13.5094 12.754 14.2578 12.2218H21.7256C22.4823 12.7457 24.9439 14.5752 27.3721 17.5108C31.2225 22.1511 33.1684 27.1989 33.1684 32.5378C33.185 35.7062 30.6071 38.2842 27.4387 38.2842Z" fill="black"/>
</svg>
