<svg width="40" height="41" viewBox="0 0 40 41" fill="none" xmlns="http://www.w3.org/2000/svg">
<g clip-path="url(#clip0_1_457)">
<path d="M36.3163 20.7278H33.7317C32.9589 19.0723 31.755 17.5698 30.2101 16.3349C30.1788 14.4961 30.0469 13.1002 29.8085 12.0774C29.4391 10.4927 28.7395 9.68921 27.7291 9.68921C26.6266 9.68921 24.2807 11.068 22.4766 13.0955C21.6644 12.9817 20.8375 12.9243 20.0116 12.9243C16.1156 12.9243 12.4449 14.175 9.67574 16.4461C7.16396 18.506 5.65706 21.1829 5.35474 24.0752C4.22732 23.7026 3.41129 22.6396 3.41129 21.389C3.41129 20.868 2.98889 20.4457 2.468 20.4457C1.94712 20.4457 1.52472 20.868 1.52472 21.389C1.52472 23.6791 3.16604 25.5923 5.33389 26.0162C5.58707 29.0229 7.16688 31.8554 9.77356 33.9551L8.96328 38.5504C8.91979 38.7968 8.97601 39.0503 9.11948 39.2552C9.26296 39.4601 9.48199 39.5997 9.72837 39.6431L13.2584 40.2656C13.5047 40.3088 13.7583 40.2528 13.9633 40.1093C14.1682 39.9658 14.3077 39.7468 14.3511 39.5004L14.8577 36.6279C16.5006 37.1395 18.2291 37.3982 20.0116 37.3982C21.794 37.3982 23.5225 37.1396 25.1654 36.6279L25.672 39.5004C25.7154 39.7468 25.8549 39.9658 26.0598 40.1093C26.2194 40.2211 26.4086 40.2799 26.6008 40.2799C26.6553 40.2799 26.7101 40.2752 26.7646 40.2656L30.2946 39.6431C30.8077 39.5527 31.1502 39.0634 31.0597 38.5504L30.2496 33.9552C31.7759 32.726 32.9654 31.236 33.7316 29.5947H36.3162C37.5067 29.5947 38.4753 28.6261 38.4753 27.4357V22.8868C38.4753 21.6964 37.5068 20.7278 36.3163 20.7278ZM36.3163 27.7081H33.1115C32.7244 27.7081 32.3768 27.9444 32.2344 28.3042C31.5552 30.0197 30.3197 31.5737 28.6613 32.7981C28.3733 33.0107 28.2305 33.3681 28.2927 33.7207L29.0382 37.949L27.3659 38.2439L26.8306 35.2081C26.7816 34.93 26.6105 34.6884 26.3645 34.5499C26.1183 34.4113 25.8231 34.3904 25.56 34.4926C23.8205 35.1687 21.9537 35.5115 20.0116 35.5115C18.0694 35.5115 16.2026 35.1687 14.4631 34.4926C14.1999 34.3904 13.9047 34.4113 13.6586 34.5499C13.4126 34.6884 13.2415 34.9299 13.1925 35.2081L12.6572 38.2439L10.985 37.949L11.7305 33.7207C11.7927 33.3681 11.6499 33.0107 11.3619 32.7981C8.70661 30.8378 7.18367 28.0542 7.18367 25.1613C7.18367 19.454 12.9383 14.8108 20.0116 14.8108C20.9129 14.8108 21.8148 14.8873 22.6921 15.0382C23.0274 15.0958 23.3677 14.9686 23.5828 14.705C25.0723 12.8802 27.0019 11.7541 27.6389 11.5939C27.8026 11.8291 28.2983 12.8651 28.3291 16.8099C28.3314 17.1051 28.4719 17.3823 28.7085 17.5588C30.3425 18.777 31.5616 20.3191 32.2343 22.0182C32.3767 22.378 32.7243 22.6143 33.1114 22.6143H36.3162C36.4664 22.6143 36.5887 22.7364 36.5887 22.8867V23.3117H36.5075C35.9866 23.3117 35.5642 23.734 35.5642 24.2549C35.5642 24.7759 35.9866 25.1982 36.5075 25.1982H36.5887V27.4355C36.5887 27.586 36.4664 27.7081 36.3163 27.7081Z" fill="black"/>
<path d="M20.0116 10.3732C22.7943 10.3732 25.0582 8.10929 25.0582 5.3266C25.0582 2.54391 22.7943 0.280029 20.0116 0.280029C17.2289 0.280029 14.965 2.54391 14.965 5.3266C14.965 8.10929 17.2289 10.3732 20.0116 10.3732ZM20.0116 2.1666C21.754 2.1666 23.1716 3.58417 23.1716 5.3266C23.1716 7.06904 21.754 8.48661 20.0116 8.48661C18.2692 8.48661 16.8516 7.06904 16.8516 5.3266C16.8516 3.58417 18.2692 2.1666 20.0116 2.1666Z" fill="black"/>
<path d="M23.7016 17.0367C22.5233 16.6624 21.2818 16.4727 20.0116 16.4727C18.7415 16.4727 17.4999 16.6624 16.3215 17.0367C15.8249 17.1945 15.5502 17.7248 15.708 18.2213C15.8658 18.7179 16.396 18.9925 16.8926 18.8347C17.8861 18.5192 18.9355 18.3591 20.0116 18.3591C21.0877 18.3591 22.1371 18.5191 23.1305 18.8347C23.2255 18.8649 23.3216 18.8793 23.4163 18.8793C23.8161 18.8793 24.1875 18.6228 24.315 18.2212C24.4729 17.7249 24.1982 17.1945 23.7016 17.0367Z" fill="black"/>
</g>
<defs>
<clipPath id="clip0_1_457">
<rect width="40" height="40" fill="white" transform="translate(0 0.280029)"/>
</clipPath>
</defs>
</svg>
