<svg width="41" height="41" viewBox="0 0 41 41" fill="none" xmlns="http://www.w3.org/2000/svg">
<g clip-path="url(#clip0_1_482)">
<path d="M33.2021 26.5842C32.2247 26.5842 31.2962 26.967 30.5957 27.6593C29.8952 28.3598 29.5043 29.272 29.5043 30.2494C29.5043 31.2268 29.8871 32.139 30.5957 32.8395C31.3043 33.5318 32.2247 33.9147 33.2021 33.9147C35.2058 33.9147 36.8348 32.2694 36.8348 30.2494C36.8348 28.2295 35.2058 26.5842 33.2021 26.5842ZM33.2021 32.2857C32.0781 32.2857 31.1333 31.3571 31.1333 30.2494C31.1333 29.1417 32.0781 28.2132 33.2021 28.2132C34.3098 28.2132 35.2058 29.1254 35.2058 30.2494C35.2058 31.3734 34.3098 32.2857 33.2021 32.2857ZM34.1469 14.3748C34.0003 14.2364 33.8048 14.1631 33.6012 14.1631H29.4228C28.9748 14.1631 28.6083 14.5296 28.6083 14.9776V21.6565C28.6083 22.1044 28.9748 22.471 29.4228 22.471H36.0528C36.5008 22.471 36.8673 22.1044 36.8673 21.6565V17.1849C36.8673 16.9568 36.7696 16.7369 36.5986 16.5821L34.1469 14.3748ZM35.2383 20.842H30.2373V15.7839H33.2835L35.2383 17.5432V20.842ZM13.3121 26.5842C12.3347 26.5842 11.4061 26.967 10.7057 27.6593C10.0052 28.3598 9.61423 29.272 9.61423 30.2494C9.61423 31.2268 9.99705 32.139 10.7057 32.8395C11.4143 33.5318 12.3347 33.9147 13.3121 33.9147C15.3157 33.9147 16.9447 32.2694 16.9447 30.2494C16.9447 28.2295 15.3157 26.5842 13.3121 26.5842ZM13.3121 32.2857C12.188 32.2857 11.2432 31.3571 11.2432 30.2494C11.2432 29.1417 12.188 28.2132 13.3121 28.2132C14.4198 28.2132 15.3157 29.1254 15.3157 30.2494C15.3157 31.3734 14.4198 32.2857 13.3121 32.2857ZM7.87935 27.586H6.24221V25.4194C6.24221 24.9715 5.87569 24.6049 5.42771 24.6049C4.97974 24.6049 4.61321 24.9715 4.61321 25.4194V28.4005C4.61321 28.8485 4.97974 29.215 5.42771 29.215H7.87935C8.32733 29.215 8.69385 28.8485 8.69385 28.4005C8.69385 27.9525 8.32733 27.586 7.87935 27.586ZM12.0089 23.147C12.0089 22.699 11.6423 22.3325 11.1944 22.3325H1.3145C0.866524 22.3325 0.5 22.699 0.5 23.147C0.5 23.595 0.866524 23.9615 1.3145 23.9615H11.1944C11.6423 23.9615 12.0089 23.6031 12.0089 23.147ZM2.96793 20.2067L12.8478 20.2637C13.2958 20.2637 13.6623 19.9053 13.6704 19.4573C13.6786 19.0012 13.3121 18.6347 12.8641 18.6347L2.98422 18.5777C2.97607 18.5777 2.97607 18.5777 2.97607 18.5777C2.5281 18.5777 2.16158 18.936 2.16158 19.384C2.15343 19.8401 2.51995 20.2067 2.96793 20.2067ZM4.6295 16.5088H14.5094C14.9573 16.5088 15.3239 16.1423 15.3239 15.6943C15.3239 15.2464 14.9573 14.8798 14.5094 14.8798H4.6295C4.18153 14.8798 3.81501 15.2464 3.81501 15.6943C3.81501 16.1423 4.18153 16.5088 4.6295 16.5088ZM40.1986 15.4093L34.3668 10.5793C34.2202 10.4571 34.041 10.392 33.8455 10.392H26.9875V7.45976C26.9875 7.01179 26.621 6.64526 26.173 6.64526H5.42771C4.97974 6.64526 4.61321 7.01179 4.61321 7.45976V13.4219C4.61321 13.8699 4.97974 14.2364 5.42771 14.2364C5.87569 14.2364 6.24221 13.8699 6.24221 13.4219V8.27426H25.3666V27.586H18.6877C18.2398 27.586 17.8732 27.9525 17.8732 28.4005C17.8732 28.8485 18.2398 29.215 18.6877 29.215H28.6328C29.0807 29.215 29.4473 28.8485 29.4473 28.4005C29.4473 27.9525 29.0807 27.586 28.6328 27.586H26.9956V12.021H33.5605L38.871 16.4192L38.814 27.5697H37.9669C37.5189 27.5697 37.1524 27.9362 37.1524 28.3842C37.1524 28.8322 37.5189 29.1987 37.9669 29.1987H39.6203C40.0683 29.1987 40.4348 28.8403 40.4348 28.3924L40.5 16.0446C40.4919 15.8002 40.386 15.564 40.1986 15.4093Z" fill="black"/>
</g>
<defs>
<clipPath id="clip0_1_482">
<rect width="40" height="40" fill="white" transform="translate(0.5 0.280029)"/>
</clipPath>
</defs>
</svg>
